<?xml version="1.0" standalone="no"?>
<!DOCTYPE svg PUBLIC "-//W3C//DTD SVG 20010904//EN"
 "http://www.w3.org/TR/2001/REC-SVG-20010904/DTD/svg10.dtd">
<svg version="1.0" xmlns="http://www.w3.org/2000/svg"
 width="436.000000pt" height="440.000000pt" viewBox="0 0 436.000000 440.000000"
 preserveAspectRatio="xMidYMid meet">

<g transform="translate(0.000000,440.000000) scale(0.100000,-0.100000)"
fill="#000000" stroke="none">
<path d="M2020 4386 c-358 -76 -629 -346 -696 -694 -48 -251 18 -510 183 -715
40 -49 58 -79 51 -82 -7 -2 -53 -18 -103 -35 -110 -38 -314 -135 -415 -197
-517 -319 -878 -838 -999 -1438 -22 -110 -41 -277 -41 -361 l0 -54 415 0 415
0 0 58 c0 145 60 374 141 534 190 379 533 641 959 734 120 26 420 26 539 0
441 -96 790 -371 976 -770 73 -156 125 -363 125 -497 l0 -59 397 0 396 0 -7
118 c-31 548 -266 1061 -662 1443 -112 107 -201 179 -330 263 -119 77 -331
182 -459 226 -49 17 -96 33 -104 36 -11 3 -7 13 16 37 282 303 312 775 71
1102 -123 166 -296 286 -485 336 -100 27 -291 34 -383 15z m305 -595 c35 -17
78 -48 96 -68 116 -133 111 -333 -11 -451 -69 -68 -120 -87 -230 -87 -109 0
-166 21 -230 85 -146 146 -117 405 56 506 108 63 211 68 319 15z"/>
<path d="M2025 1716 c-405 -92 -686 -437 -686 -841 0 -216 59 -383 194 -554
98 -123 283 -243 442 -286 94 -26 294 -31 396 -10 266 53 485 224 604 469 60
122 85 233 85 369 0 252 -87 457 -267 629 -99 93 -207 158 -333 200 -84 27
-111 31 -235 34 -94 3 -160 -1 -200 -10z m290 -391 c251 -66 404 -322 340
-570 -77 -294 -397 -439 -669 -303 -155 78 -256 243 -256 418 0 304 292 531
585 455z"/>
</g>
</svg>
