<svg version="1.0" xmlns="http://www.w3.org/2000/svg" width="682.667" height="682.667" viewBox="0 0 512 512">
    <path d="M158.5 31.1c-13.8 1.7-22 8.2-24 19-.9 5 1.2 15.3 4.5 21.9 8.2 16.2 24.6 36.3 36.2 44.1l5.7 3.9H256c62.3 0 75.6-.2 77.8-1.4 4-2.1 20.9-19.9 28.2-29.6 7.4-10 14.5-24.2 16.1-32 3.5-17.7-11.8-28.7-34.7-25.1-12.5 1.9-24.1 5.9-52.5 18.1-35.8 15.4-32.3 15.3-60.7 3.1-31.9-13.6-52-20.8-62.7-22.3-1.6-.3-5.7-.1-9 .3zM178.9 133.9c-5 5.1-3.6 13.7 2.8 17 3.2 1.6 145.2 1.6 148.8-.1 6-2.7 7.4-12 2.6-16.9l-2.9-2.9H181.8l-2.9 2.9zM170.9 172.3c-48.6 42.5-87.8 107-103.8 170.2-3.4 13.6-8.2 41.5-8.8 51-2.8 47.4 29.1 79.8 83 84.5 43.2 3.7 147.7 4.6 202.2 1.7 33.6-1.8 38.8-2.4 52.2-6.2 38.1-10.8 58.3-36.8 58.3-75.1 0-21.3-8.5-60.4-19.7-90.4-18.3-49.2-52-99.1-89.8-133.1l-11-9.9H179.2l-8.3 7.3zm151.1 50c0 .2-2.2 4.4-4.8 9.3l-4.9 8.9-15.5.3-15.6.2 3.1 5.6c1.6 3.1 3.5 7.5 4.2 9.8l1.2 4.1 16.7-.3 16.7-.2-3.6 6.2c-2 3.5-4.3 7.8-5.2 9.5l-1.7 3.3H291v3.3c0 8.5-5.2 19.8-12.9 28.1-8.6 9.2-19 14.7-36.3 19l-8.6 2.1 36.8 46c20.3 25.2 36.6 46.3 36.4 46.7-.3.4-7.4.8-15.7.8h-15.2l-35.7-44.5-35.8-44.4V317h10.3c28.4-.1 45.9-11.1 50.6-32l.9-4.3-34.9.5c-19.2.2-34.9.2-34.9 0 0-.3 2.6-4.6 5.7-9.7l5.6-9.2 27.1-.7c14.8-.3 27.2-.8 27.4-1.1.2-.2-.4-1.9-1.5-3.7-2.5-4.3-8.9-9.1-16-12-5.5-2.2-6.8-2.3-26.9-2l-21.2.3 5-9.5c4.6-9 5.1-9.6 8.1-9.7 19.9-.9 112.7-2.1 112.7-1.6z"/>
</svg>
