<?xml version="1.0" standalone="no"?>
<!DOCTYPE svg PUBLIC "-//W3C//DTD SVG 20010904//EN"
 "http://www.w3.org/TR/2001/REC-SVG-20010904/DTD/svg10.dtd">
<svg version="1.0" xmlns="http://www.w3.org/2000/svg"
 width="512.000000pt" height="512.000000pt" viewBox="0 0 512.000000 512.000000"
 preserveAspectRatio="xMidYMid meet">

<g transform="translate(0.000000,512.000000) scale(0.100000,-0.100000)"
fill="#000000" stroke="none">
<path d="M1585 4809 c-138 -17 -220 -82 -240 -190 -9 -50 12 -153 45 -219 82
-162 246 -363 362 -441 l57 -39 751 0 c623 0 756 2 778 14 40 21 209 199 282
296 74 100 145 242 161 320 35 177 -118 287 -347 251 -125 -19 -241 -59 -525
-181 -358 -154 -323 -153 -607 -31 -319 136 -520 208 -627 223 -16 3 -57 1
-90 -3z"/>
<path d="M1789 3781 c-50 -51 -36 -137 28 -170 32 -16 1452 -16 1488 1 60 27
74 120 26 169 l-29 29 -742 0 -742 0 -29 -29z"/>
<path d="M1709 3397 c-486 -425 -878 -1070 -1038 -1702 -34 -136 -82 -415 -88
-510 -28 -474 291 -798 830 -845 432 -37 1477 -46 2022 -17 336 18 388 24 522
62 381 108 583 368 583 751 0 213 -85 604 -197 904 -183 492 -520 991 -898
1331 l-110 99 -771 0 -772 0 -83 -73z m1511 -500 c0 -2 -22 -44 -48 -93 l-49
-89 -155 -3 -156 -2 31 -56 c16 -31 35 -75 42 -98 l12 -41 167 3 167 2 -36
-62 c-20 -35 -43 -78 -52 -95 l-17 -33 -108 0 -108 0 0 -33 c0 -85 -52 -198
-129 -281 -86 -92 -190 -147 -363 -190 l-86 -21 368 -460 c203 -252 366 -463
364 -467 -3 -4 -74 -8 -157 -8 l-152 0 -357 445 -358 444 0 96 0 95 103 0
c284 1 459 111 506 320 l9 43 -349 -5 c-192 -2 -349 -2 -349 0 0 3 26 46 57
97 l56 92 271 7 c148 3 272 8 274 11 2 2 -4 19 -15 37 -25 43 -89 91 -160 120
-55 22 -68 23 -269 20 l-212 -3 50 95 c46 90 51 96 81 97 199 9 1127 21 1127
16z"/>
</g>
</svg>
